emg_normalized.mot
version=1
nRows=45
nColumns=17
in_degrees=yes
endheader
time	VM	VL	RF	GRA	TA	ADDLONG	SEMIMEM	BFLH	GM	GL	TFL	GLUTMAX	GLUTMED	PIRI	OBTINT	QF
1.278500	0.009780	0.072363	0.165561	0.981695	0.833941	0.242457	0.078857	0.026420	0.011878	0.006259	0.024561	0.096879	0.525316	0.146645	0.187141	0.765131
1.279000	0.009952	0.072434	0.167558	0.979223	0.838515	0.240591	0.077939	0.025779	0.011371	0.005381	0.024861	0.097166	0.523450	0.144447	0.185459	0.757966
1.279500	0.010117	0.072498	0.169604	0.976619	0.842986	0.238718	0.077030	0.025161	0.010896	0.004541	0.025168	0.097453	0.521518	0.142305	0.183762	0.750750
1.280000	0.010280	0.072555	0.171704	0.973888	0.847350	0.236839	0.076131	0.024561	0.010454	0.003734	0.025481	0.097734	0.519520	0.140216	0.182052	0.743489
1.280500	0.010438	0.072609	0.173857	0.971037	0.851611	0.234957	0.075240	0.023982	0.010041	0.002962	0.025801	0.098015	0.517456	0.138179	0.180330	0.736191
1.281000	0.010591	0.072656	0.176060	0.968071	0.855760	0.233074	0.074360	0.023422	0.009658	0.002225	0.026130	0.098292	0.515328	0.136194	0.178596	0.728862
1.281500	0.010740	0.072699	0.178319	0.964993	0.859802	0.231191	0.073490	0.022880	0.009306	0.001520	0.026467	0.098567	0.513133	0.134258	0.176853	0.721510
1.282000	0.010886	0.072737	0.180636	0.961816	0.863732	0.229311	0.072630	0.022359	0.008981	0.000849	0.026810	0.098839	0.510873	0.132371	0.175100	0.714139
1.282500	0.011027	0.072770	0.183011	0.958540	0.867555	0.227436	0.071779	0.021854	0.008684	0.000209	0.027162	0.099109	0.508549	0.130531	0.173337	0.706757
1.283000	0.011165	0.072798	0.185443	0.955169	0.871266	0.225567	0.070939	0.021370	0.008413	0.000000	0.027521	0.099377	0.506160	0.128737	0.171567	0.699370
1.283500	0.011299	0.072824	0.187940	0.951713	0.874865	0.223707	0.070107	0.020901	0.008168	0.000000	0.027889	0.099642	0.503708	0.126989	0.169789	0.691982
1.284000	0.011429	0.072848	0.190495	0.948176	0.878348	0.221858	0.069286	0.020451	0.007950	0.000000	0.028264	0.099904	0.501194	0.125285	0.168005	0.684601
1.284500	0.011556	0.072867	0.193112	0.944560	0.881719	0.220021	0.068474	0.020018	0.007757	0.000000	0.028649	0.100167	0.498619	0.123625	0.166214	0.677230
1.285000	0.011678	0.072883	0.195798	0.940873	0.884974	0.218197	0.067672	0.019601	0.007586	0.000000	0.029042	0.100425	0.495985	0.122006	0.164419	0.669876
1.285500	0.011798	0.072897	0.198546	0.937121	0.888112	0.216389	0.066879	0.019201	0.007441	0.000000	0.029444	0.100683	0.493293	0.120428	0.162620	0.662542
1.286000	0.011915	0.072909	0.201363	0.933306	0.891139	0.214599	0.066096	0.018819	0.007316	0.000000	0.029854	0.100938	0.490545	0.118890	0.160818	0.655235
1.286500	0.012027	0.072919	0.204246	0.929439	0.894045	0.212827	0.065322	0.018450	0.007215	0.000000	0.030272	0.101192	0.487744	0.117390	0.159012	0.647958
1.287000	0.012137	0.072928	0.207199	0.925520	0.896835	0.211076	0.064557	0.018097	0.007133	0.000000	0.030702	0.101445	0.484890	0.115928	0.157206	0.640716
1.287500	0.012243	0.072933	0.210226	0.921556	0.899505	0.209346	0.063801	0.017759	0.007072	0.000000	0.031139	0.101696	0.481989	0.114502	0.155396	0.633513
1.288000	0.012346	0.072940	0.213322	0.917552	0.902058	0.207640	0.063055	0.017436	0.007032	0.000000	0.031585	0.101945	0.479040	0.113112	0.153587	0.626353
1.288500	0.012447	0.072942	0.216492	0.913513	0.904490	0.205959	0.062316	0.017127	0.007010	0.000000	0.032040	0.102192	0.476047	0.111755	0.151779	0.619240
1.289000	0.012544	0.072947	0.219736	0.909443	0.906806	0.204303	0.061587	0.016833	0.007006	0.000000	0.032507	0.102438	0.473012	0.110432	0.149971	0.612176
1.289500	0.012639	0.072949	0.223054	0.905344	0.909006	0.202674	0.060866	0.016553	0.007020	0.000000	0.032980	0.102682	0.469937	0.109141	0.148166	0.605167
1.290000	0.012730	0.072952	0.226450	0.901224	0.911085	0.201075	0.060153	0.016286	0.007050	0.000000	0.033465	0.102926	0.466828	0.107881	0.146362	0.598214
1.290500	0.012820	0.072954	0.229923	0.897084	0.913047	0.199505	0.059448	0.016033	0.007098	0.000000	0.033959	0.103167	0.463683	0.106650	0.144562	0.591321
1.291000	0.012906	0.072956	0.233475	0.892928	0.914894	0.197966	0.058753	0.015791	0.007160	0.000000	0.034460	0.103408	0.460506	0.105448	0.142767	0.584492
1.291500	0.012989	0.072959	0.237104	0.888760	0.916624	0.196459	0.058064	0.015564	0.007237	0.000000	0.034975	0.103647	0.457302	0.104275	0.140975	0.577727
1.292000	0.013071	0.072961	0.240816	0.884583	0.918234	0.194986	0.057384	0.015348	0.007328	0.000000	0.035496	0.103887	0.454071	0.103128	0.139191	0.571031
1.292500	0.013151	0.072964	0.244605	0.880403	0.919732	0.193547	0.056712	0.015144	0.007433	0.000000	0.036029	0.104124	0.450817	0.102009	0.137413	0.564405
1.293000	0.013227	0.072966	0.248476	0.876219	0.921118	0.192144	0.056046	0.014952	0.007552	0.000000	0.036571	0.104362	0.447542	0.100915	0.135643	0.557851
1.293500	0.013303	0.072971	0.252430	0.872040	0.922387	0.190777	0.055389	0.014771	0.007683	0.000000	0.037122	0.104598	0.444249	0.099848	0.133881	0.551372
1.294000	0.013375	0.072975	0.256465	0.867863	0.923550	0.189447	0.054739	0.014603	0.007825	0.000000	0.037685	0.104834	0.440942	0.098806	0.132129	0.544969
1.294500	0.013445	0.072980	0.260587	0.863695	0.924609	0.188156	0.054096	0.014444	0.007978	0.000000	0.038257	0.105070	0.437621	0.097789	0.130386	0.538644
1.295000	0.013514	0.072987	0.264791	0.859536	0.925562	0.186904	0.053460	0.014295	0.008143	0.000000	0.038838	0.105306	0.434290	0.096798	0.128653	0.532399
1.295500	0.013581	0.072994	0.269080	0.855391	0.926416	0.185693	0.052831	0.014159	0.008317	0.000000	0.039428	0.105540	0.430953	0.095831	0.126932	0.526234
1.296000	0.013645	0.073001	0.273452	0.851263	0.927176	0.184523	0.052209	0.014031	0.008499	0.000000	0.040029	0.105776	0.427608	0.094889	0.125223	0.520151
1.296500	0.013708	0.073011	0.277910	0.847152	0.927842	0.183394	0.051593	0.013914	0.008692	0.000000	0.040642	0.106012	0.424262	0.093972	0.123527	0.514151
1.297000	0.013770	0.073020	0.282454	0.843065	0.928414	0.182308	0.050984	0.013805	0.008893	0.000000	0.041264	0.106250	0.420915	0.093079	0.121844	0.508235
1.297500	0.013830	0.073030	0.287084	0.839004	0.928902	0.181266	0.050382	0.013706	0.009102	0.000000	0.041896	0.106487	0.417571	0.092209	0.120175	0.502404
1.298000	0.013888	0.073041	0.291800	0.834970	0.929304	0.180267	0.049785	0.013617	0.009318	0.000000	0.042538	0.106727	0.414229	0.091364	0.118520	0.496657
1.298500	0.013946	0.073053	0.296599	0.830964	0.929626	0.179314	0.049195	0.013536	0.009539	0.000000	0.043190	0.106968	0.410896	0.090542	0.116881	0.490996
1.299000	0.014002	0.073067	0.301487	0.826992	0.929872	0.178406	0.048611	0.013463	0.009767	0.000000	0.043853	0.107210	0.407572	0.089744	0.115257	0.485421
1.299500	0.014056	0.073082	0.306462	0.823051	0.930051	0.177545	0.048033	0.013399	0.010002	0.000000	0.044526	0.107454	0.404259	0.088968	0.113650	0.479931
1.300000	0.014109	0.073098	0.311522	0.819148	0.930162	0.176730	0.047461	0.013342	0.010240	0.000000	0.045210	0.107700	0.400960	0.088217	0.112060	0.474527
1.300500	0.014161	0.073115	0.316669	0.815283	0.930212	0.175962	0.046895	0.013294	0.010483	0.000000	0.045905	0.107949	0.397677	0.087489	0.110488	0.469209
